HIERARCHY
ROOT Hips
{
	OFFSET 0.00000 0.00000 0.00000
	CHANNELS 6 Xposition Yposition Zposition Zrotation Yrotation Xrotation 
	JOINT LHipJoint
	{
		OFFSET 0 0 0
		CHANNELS 3 Zrotation Yrotation Xrotation
		JOINT LeftUpLeg
		{
			OFFSET 1.53794 -1.55850 0.93568
			CHANNELS 3 Zrotation Yrotation Xrotation
			JOINT LeftLeg
			{
				OFFSET 2.28545 -6.27922 0.00000
				CHANNELS 3 Zrotation Yrotation Xrotation
				JOINT LeftFoot
				{
					OFFSET 2.37329 -6.52057 0.00000
					CHANNELS 3 Zrotation Yrotation Xrotation
					JOINT LeftToeBase
					{
						OFFSET 0.14846 -0.40788 2.09160
						CHANNELS 3 Zrotation Yrotation Xrotation
						End Site
						{
							OFFSET 0.00000 -0.00000 1.07536
						}
					}
				}
			}
		}
	}
	JOINT RHipJoint
	{
		OFFSET 0 0 0
		CHANNELS 3 Zrotation Yrotation Xrotation
		JOINT RightUpLeg
		{
			OFFSET -1.78290 -1.55850 0.93568
			CHANNELS 3 Zrotation Yrotation Xrotation
			JOINT RightLeg
			{
				OFFSET -2.24144 -6.15831 0.00000
				CHANNELS 3 Zrotation Yrotation Xrotation
				JOINT RightFoot
				{
					OFFSET -2.35091 -6.45907 0.00000
					CHANNELS 3 Zrotation Yrotation Xrotation
					JOINT RightToeBase
					{
						OFFSET -0.14428 -0.39641 2.07944
						CHANNELS 3 Zrotation Yrotation Xrotation
						End Site
						{
							OFFSET -0.00000 -0.00000 1.06864
						}
					}
				}
			}
		}
	}
	JOINT LowerBack
	{
		OFFSET 0 0 0
		CHANNELS 3 Zrotation Yrotation Xrotation
		JOINT Spine
		{
			OFFSET -0.08841 2.11430 -0.15818
			CHANNELS 3 Zrotation Yrotation Xrotation
			JOINT Spine1
			{
				OFFSET -0.00033 2.12605 -0.08097
				CHANNELS 3 Zrotation Yrotation Xrotation
				JOINT Neck
				{
					OFFSET 0 0 0
					CHANNELS 3 Zrotation Yrotation Xrotation
					JOINT Neck1
					{
						OFFSET 0.04431 1.59447 0.43193
						CHANNELS 3 Zrotation Yrotation Xrotation
						JOINT Head
						{
							OFFSET 0.00455 1.62017 -0.58852
							CHANNELS 3 Zrotation Yrotation Xrotation
							End Site
							{
								OFFSET -0.00920 1.72955 -0.25850
							}
						}
					}
				}
				JOINT LeftShoulder
				{
					OFFSET 0 0 0
					CHANNELS 3 Zrotation Yrotation Xrotation
					JOINT LeftArm
					{
						OFFSET 2.86490 1.49927 -0.33774
						CHANNELS 3 Zrotation Yrotation Xrotation
						JOINT LeftForeArm
						{
							OFFSET 4.87408 -0.00000 0.00000
							CHANNELS 3 Zrotation Yrotation Xrotation
							JOINT LeftHand
							{
								OFFSET 2.76729 -0.00000 0.00000
								CHANNELS 3 Zrotation Yrotation Xrotation
								JOINT LeftFingerBase
								{
									OFFSET 0 0 0
									CHANNELS 3 Zrotation Yrotation Xrotation
									JOINT LeftHandIndex1
									{
										OFFSET 0.98922 -0.00000 0.00000
										CHANNELS 3 Zrotation Yrotation Xrotation
										End Site
										{
											OFFSET 0.79753 -0.00000 0.00000
										}
									}
								}
								JOINT LThumb
								{
									OFFSET 0 0 0
									CHANNELS 3 Zrotation Yrotation Xrotation
									End Site
									{
										OFFSET 0.80972 -0.00000 0.80972
									}
								}
							}
						}
					}
				}
				JOINT RightShoulder
				{
					OFFSET 0 0 0
					CHANNELS 3 Zrotation Yrotation Xrotation
					JOINT RightArm
					{
						OFFSET -2.94414 1.45463 -0.25291
						CHANNELS 3 Zrotation Yrotation Xrotation
						JOINT RightForeArm
						{
							OFFSET -4.71404 -0.00000 0.00000
							CHANNELS 3 Zrotation Yrotation Xrotation
							JOINT RightHand
							{
								OFFSET -2.83468 -0.00000 0.00000
								CHANNELS 3 Zrotation Yrotation Xrotation
								JOINT RightFingerBase
								{
									OFFSET 0 0 0
									CHANNELS 3 Zrotation Yrotation Xrotation
									JOINT RightHandIndex1
									{
										OFFSET -0.86820 -0.00000 0.00000
										CHANNELS 3 Zrotation Yrotation Xrotation
										End Site
										{
											OFFSET -0.69996 -0.00000 0.00000
										}
									}
								}
								JOINT RThumb
								{
									OFFSET 0 0 0
									CHANNELS 3 Zrotation Yrotation Xrotation
									End Site
									{
										OFFSET -0.71065 -0.00000 0.71065
									}
								}
							}
						}
					}
				}
			}
		}
	}
}
MOTION
Frames: 10
Frame Time: 0.0740741
0.00 0.00 0.00 0 0 0 0 0 0 -21 0 0 0 0 0 0 0 0 0 0 0 0 0 0 21 0 0 0 0 0 0 0 0 0 0 0 0 0 0 0 0 0 0 0 0 0 0 -16 0 0 21 0 0 11 0 0 0 -8 0 0 0 0 0 0 0 0 0 0 0 0 0 0 0 0 0 0 0 0 8 0 0 0 0 0 0 0 0 0 0 0 0 0 0 0 0 0
0.00 0.00 0.00 176.5850 0.4931 -172.1480 0.0000 0.0000 0.0000 -20.7028 -17.3298 -31.2198 4.3012 12.5508 37.7094 -0.0182 10.8280 7.3100 0.8411 -5.8500 -16.3499 0.0000 0.0000 0.0000 20.4365 -1.5198 0.6821 -6.4011 -14.8061 46.5709 -0.2977 -22.9343 18.2382 -0.2809 3.4087 -9.4189 -4.3326 5.7199 -1.9647 -2.8367 7.9007 0.4337 -0.2785 3.9711 1.3650 -2.1083 -2.8909 -33.7124 3.1277 -9.3471 43.4654 -1.2186 -4.0294 27.0581 -0.0000 -0.0000 0.0000 -55.7932 44.3226 59.6164 108.4086 -58.6800 -75.8717 -0.0000 -0.0000 15.7372 14.8624 5.1449 1.3632 -7.1250 0.0000 -0.0000 -9.8064 35.1629 2.3985 -0.0000 -0.0000 0.0000 84.6826 -5.8147 54.5140 -112.4556 58.0062 -79.3170 0.0000 0.0000 8.7461 -11.3904 -1.4711 0.2963 7.1250 -0.0000 -0.0000 12.0844 -31.3364 4.1179
0.00 0.00 0.00 174.0210 0.1998 -174.9300 0.0000 0.0000 0.0000 -27.5704 -14.4914 -23.2547 5.7127 14.1440 43.8174 -1.0894 18.2350 -4.4740 0.7352 -5.4779 -15.2769 0.0000 0.0000 0.0000 15.1623 -1.5429 -6.0824 -11.8632 -18.3322 65.5545 0.9527 -22.0459 6.9776 -0.3903 4.0118 -11.1097 -5.9375 4.6137 1.3992 -2.9846 5.9212 1.4110 0.1569 2.8433 0.3834 -1.1645 -1.7284 -33.5884 2.7997 -7.5776 43.0027 -0.9808 -3.3303 26.2028 -0.0000 0.0000 0.0000 -64.9094 36.7223 54.3283 100.2911 -59.5960 -68.9003 -0.0000 -0.0000 17.8290 16.3141 3.9743 1.1621 -7.1250 0.0000 -0.0000 -8.4657 34.0272 2.3000 -0.0000 0.0000 0.0000 86.2146 -14.6112 48.3957 -99.3952 59.6638 -68.1273 0.0000 0.0000 9.1556 -11.6603 -2.7508 0.5675 7.1250 -0.0000 -0.0000 12.0490 -32.6212 3.7243
0.00 0.00 0.00 171.3860 0.6635 -174.8890 0.0000 0.0000 0.0000 -31.9170 -12.2549 -18.5432 5.7358 14.1673 43.9120 -1.4997 21.0605 -8.3701 0.7792 -5.6358 -15.7313 0.0000 0.0000 0.0000 10.6149 1.6007 -15.7724 -15.8115 -19.5741 77.6695 1.2045 -19.7983 -1.4039 -0.7735 5.6158 -15.6736 -8.7392 3.2976 1.9779 -3.1671 4.6742 2.3992 1.5337 2.3773 0.9773 -0.9265 -1.0571 -34.3798 3.0044 -6.3979 42.4260 -0.5004 -2.8070 25.8566 0.0000 -0.0000 0.0000 -74.0456 25.0372 50.1308 87.6678 -59.9794 -57.9804 -0.0000 -0.0000 20.0497 17.8961 5.3020 1.7092 -7.1250 0.0000 -0.0000 -7.3275 35.4711 1.7271 0.0000 -0.0000 0.0000 88.2696 -19.3790 38.7768 -77.9105 59.4405 -49.5498 0.0000 0.0000 10.5742 -12.2733 -6.2022 1.3464 7.1250 -0.0000 -0.0000 12.1039 -36.0957 2.6987
0.00 0.00 0.00 171.0340 -1.4755 -168.0690 0.0000 0.0000 0.0000 -33.1769 -7.2785 -3.8700 2.8457 10.4409 30.4167 -0.3885 13.2900 3.1469 1.2258 -7.0221 -19.7807 0.0000 0.0000 0.0000 5.3638 15.1889 -45.8483 -11.5644 -18.2004 64.6011 1.2044 -19.8442 -13.7620 -1.0953 6.6507 -18.6846 -9.9167 -3.7055 2.3034 -1.0832 -5.2820 1.3129 4.4468 -2.7833 0.8581 5.3038 1.0459 -33.2070 -2.6906 3.6265 43.2057 -1.0114 2.8640 26.2079 -0.0000 0.0000 0.0000 -83.1980 4.8487 49.2944 99.3311 -59.6684 -68.0720 -0.0000 -0.0000 23.8567 17.0679 3.2179 0.9874 -7.1250 0.0000 -0.0000 -7.7685 33.2732 2.2506 -0.0000 0.0000 0.0000 81.9901 -33.0532 18.1775 -35.1646 44.9293 -14.9295 0.0000 0.0000 11.5549 -9.1562 -7.1166 1.1440 7.1250 -0.0000 -0.0000 14.8473 -36.8164 3.0722
0.00 0.00 0.00 171.6600 -1.1671 -165.4410 0.0000 0.0000 0.0000 -31.5502 -2.9313 3.4507 1.9189 8.6951 24.8460 1.2673 8.4237 20.1521 0.6386 -5.1128 -14.2307 0.0000 0.0000 0.0000 7.6321 16.0281 -48.5452 -7.0271 -15.3547 48.9767 0.7112 -15.0070 -8.6301 -1.6983 8.2071 -23.3448 -9.5309 -5.9448 0.1263 -0.0789 -7.9665 1.1850 4.9491 -4.1647 2.4438 7.3203 3.0138 -32.0534 -4.8442 7.0344 43.0611 -1.6473 4.0882 26.3901 0.0000 -0.0000 0.0000 -74.3677 3.0704 53.6206 106.7524 -58.9126 -74.4550 -0.0000 -0.0000 23.2781 14.5451 0.5137 0.1333 -7.1250 0.0000 -0.0000 -9.4951 30.4346 3.4189 0.0000 -0.0000 0.0000 79.2803 -42.0651 14.4479 -35.9786 45.4984 -15.5072 0.0000 0.0000 8.8876 -6.0931 -6.6496 0.7082 7.1250 -0.0000 -0.0000 17.2465 -36.1775 3.8852
0.00 0.00 0.00 171.5350 -0.6273 -165.9660 0.0000 0.0000 0.0000 -30.5570 -1.8884 1.0669 5.1505 13.5513 41.4687 2.1935 6.6456 26.7160 0.1708 -2.6626 -7.3407 0.0000 0.0000 0.0000 12.3779 12.5553 -45.0377 -9.7857 -17.2876 58.7698 0.4259 -15.3726 -16.5830 -1.2697 7.1421 -20.1370 -9.3846 -6.2843 -0.0675 -0.3995 -8.4033 1.7013 4.4459 -4.4306 3.0908 8.4024 3.9237 -32.1612 -6.0040 8.4497 42.7481 -2.1151 4.5856 26.6624 0.0000 0.0000 0.0000 -73.0074 6.6082 51.1299 103.4104 -59.3094 -71.5868 -0.0000 -0.0000 24.2418 12.8727 1.2814 0.2928 -7.1250 0.0000 -0.0000 -10.8945 31.1810 3.7399 0.0000 0.0000 0.0000 79.6982 -43.5290 15.3997 -38.6931 47.2763 -17.4730 0.0000 0.0000 7.4338 -6.2269 -5.1937 0.5659 7.1250 -0.0000 -0.0000 16.8199 -34.7858 4.3767
0.00 0.00 0.00 173.4590 0.1687 -166.9090 0.0000 0.0000 0.0000 -28.0010 -2.1363 -5.0239 9.8774 17.3403 59.0777 1.6272 11.4808 23.0527 0.1378 -2.3925 -6.5918 0.0000 0.0000 0.0000 15.8020 13.1443 -40.7198 -11.5070 -18.1744 64.4174 0.0270 -16.4072 -23.0091 -1.8402 8.5249 -24.3202 -7.6200 -5.4629 1.4566 -0.0617 -7.4457 2.3708 4.0363 -3.9312 2.6026 8.5847 4.2823 -32.9505 -6.6600 8.5854 41.6553 -2.5005 4.4277 25.9398 -0.0000 0.0000 0.0000 -75.9351 8.8789 47.8014 96.9634 -59.8160 -66.0267 -0.0000 -0.0000 24.9893 13.1822 2.5620 0.5999 -7.1250 0.0000 -0.0000 -10.8109 32.4798 3.3664 -0.0000 0.0000 0.0000 81.0833 -39.3737 16.6735 -39.9584 48.0452 -18.4083 0.0000 0.0000 7.0508 -8.2263 -5.4453 0.7860 7.1250 -0.0000 -0.0000 15.2637 -35.1325 3.8120
0.00 0.00 0.00 176.8480 1.1650 -167.5660 0.0000 0.0000 0.0000 -23.5164 -4.4950 -15.5670 16.6675 19.7316 80.2145 0.7300 15.1423 17.3619 0.2646 -3.3090 -9.1403 0.0000 0.0000 0.0000 20.5579 13.4527 -35.1603 -12.2713 -18.5030 66.8463 -0.1372 -17.4930 -25.9566 -2.5262 9.8853 -28.6061 -4.2372 -4.2153 3.6724 0.5564 -5.5705 3.2356 3.0286 -2.8156 1.7476 7.2809 3.7296 -33.1005 -6.0033 7.3759 40.2430 -2.2252 3.6993 24.1189 0.0000 -0.0000 0.0000 -79.3816 9.1888 43.9186 80.9492 -59.6882 -52.1700 -0.0000 -0.0000 24.8933 14.2528 6.2793 1.5915 -7.1250 0.0000 -0.0000 -10.4818 36.2834 2.2774 0.0000 -0.0000 0.0000 82.6880 -30.6558 20.0942 -40.8862 48.5863 -19.1012 0.0000 0.0000 6.9565 -11.0034 -6.3279 1.2277 7.1250 -0.0000 -0.0000 13.1715 -36.1496 2.9291
0.00 0.00 0.00 178.0940 3.7458 -167.4430 0.0000 0.0000 0.0000 -19.6243 -9.2495 -33.2887 23.6521 19.6772 100.7336 -0.0199 17.0331 11.7764 0.2116 -2.9617 -8.1721 0.0000 0.0000 0.0000 22.9154 12.3571 -27.4401 -11.4746 -18.1596 64.3134 0.0265 -18.3718 -25.7867 -3.1134 10.8765 -31.8644 -2.7521 -2.1950 5.7759 -0.1076 -2.8347 3.5623 1.5738 -1.3689 0.5660 5.8091 2.7382 -34.3402 -4.2536 5.5815 40.3973 -1.5010 3.0211 24.1720 -0.0000 0.0000 0.0000 -79.3466 12.3336 40.5872 67.4740 -57.9931 -40.6234 -0.0000 -0.0000 18.9315 14.6639 11.5965 3.0110 -7.1250 0.0000 -0.0000 -11.1502 41.6917 0.9227 -0.0000 0.0000 0.0000 82.1425 -17.0532 31.4002 -45.8280 51.1677 -22.8820 0.0000 0.0000 8.5858 -12.6301 -5.5133 1.2333 7.1250 -0.0000 -0.0000 11.6934 -35.4250 2.7989
